<svg xmlns="http://www.w3.org/2000/svg" width="22.6" height="17.262" viewBox="0 0 22.6 17.262">
  <g id="icn--pass-show" transform="translate(-909.2 -629.671)">
    <g id="Group_4378" data-name="Group 4378" transform="translate(910 630.801)">
      <path id="crossed" d="M-.434,14.321l16-15" transform="translate(2.993 0.679)" fill="none" stroke="#cdd0db" stroke-linecap="round" stroke-width="1.6"/>
      <g id="Group_4377" data-name="Group 4377" transform="translate(0 0.46)">
        <path id="Path_12743" data-name="Path 12743" d="M10.5,14C16.3,14,21,7,21,7S16.3,0,10.5,0,0,7,0,7,4.7,14,10.5,14Z" transform="translate(0)" fill="none" stroke="#cdd0db" stroke-linecap="round" stroke-linejoin="round" stroke-width="1.6"/>
        <g id="Path_12744" data-name="Path 12744" transform="translate(3.779 1.838)" fill="none">
          <path d="M6.628-.015A5.027,5.027,0,1,1,1.6,5.012,5.027,5.027,0,0,1,6.628-.015Z" stroke="none"/>
          <path d="M 6.628173828125 1.585351943969727 C 4.738734245300293 1.585351943969727 3.201563835144043 3.122522354125977 3.201563835144043 5.011962413787842 C 3.201563835144043 6.901402473449707 4.738734245300293 8.438571929931641 6.628173828125 8.438571929931641 C 8.517614364624023 8.438571929931641 10.05478382110596 6.901402473449707 10.05478382110596 5.011962413787842 C 10.05478382110596 3.122522354125977 8.517614364624023 1.585351943969727 6.628173828125 1.585351943969727 M 6.628173828125 -0.01464748382568359 C 9.404294013977051 -0.01464748382568359 11.65478420257568 2.235842227935791 11.65478420257568 5.011962413787842 C 11.65478420257568 7.788082122802734 9.404294013977051 10.03857231140137 6.628173828125 10.03857231140137 C 3.852053642272949 10.03857231140137 1.601563453674316 7.788082122802734 1.601563453674316 5.011962413787842 C 1.601563453674316 2.235842227935791 3.852053642272949 -0.01464748382568359 6.628173828125 -0.01464748382568359 Z" stroke="none" fill="#cdd0db"/>
        </g>
      </g>
    </g>
  </g>
</svg>
